<svg width="240" height="240" viewBox="0 0 240 240" fill="none" xmlns="http://www.w3.org/2000/svg">
<path d="M15.5346 180.569L28.7165 168.032C32.7995 165.952 38.0045 172.379 34.8986 175.652C26.7906 182.576 31.9728 179.452 23.7765 186.211C23.3888 186.531 22.7113 187.066 22.3002 187.312C18.7575 189.441 13.6384 184.198 15.5346 180.569Z" fill="url(#paint0_linear_930_26300)"/>
<path d="M15.5595 153.722C15.4363 152.337 16.117 151.116 16.9132 150.077C21.3341 146.478 25.3237 141.287 29.8039 137.889C34.4132 134.394 40.0842 139.7 37.0857 144.44C32.3405 148.171 27.8944 154.271 23.094 157.702C20.1219 159.825 15.8789 157.341 15.5595 153.722Z" fill="url(#paint1_linear_930_26300)"/>
<path d="M25.4988 201.743C28.9264 197.329 31.7375 195.829 31.7375 195.829C36.4264 192.862 41.0456 198.313 38.1678 203.136C38.1678 203.136 37.0935 204.839 32.7315 208.334C27.884 212.218 22.21 205.979 25.4988 201.743Z" fill="url(#paint2_linear_930_26300)"/>
<path d="M52.6162 204.44C54.2313 202.441 51.9851 204.514 54.0405 202.893C58.8839 199.074 64.5315 205.468 61.3224 209.485C59.7312 211.475 61.3532 209.941 59.2822 211.562C54.9425 214.96 48.9991 208.917 52.6162 204.44Z" fill="url(#paint3_linear_930_26300)"/>
<path fill-rule="evenodd" clip-rule="evenodd" d="M51.0421 118.879C56.3121 152.124 80.5546 179.055 112.328 188.229L73.0651 225.277C69.1283 227.3 64.8884 222.762 67.0551 218.848L95.4734 191.472C99.7794 186.267 93.594 179.048 87.853 182.555L68.3964 201.243C64.0892 204.565 58.726 198.661 62.3137 194.474L71.9206 185.189C75.0713 179.894 68.7994 173.667 63.716 177.139L45.2904 194.809C41.0488 197.864 35.7427 192.203 39.2206 188.086L60.2321 167.901C64.3487 163.12 58.7255 156.036 53.1166 158.791L43.3289 168.132C39.2283 171.308 33.9051 166.379 36.6359 161.999L54.7904 144.539C57.1132 139.69 51.5889 133.458 45.9814 136.822L44.722 137.954C40.9261 140.966 34.7819 135.56 39.1542 130.69L51.0421 118.879Z" fill="url(#paint4_linear_930_26300)"/>
<path fill-rule="evenodd" clip-rule="evenodd" d="M51.5888 104.299C51.5888 56.6066 90.2514 17.944 137.944 17.944C139.531 17.944 141.108 17.9903 142.674 18.0753C102.121 20.3805 69.948 52.4961 69.948 95.1186C69.948 115.395 78.1054 133.845 91.0871 147.618C94.924 147.575 98.3118 147.66 101.287 147.735C115.636 148.097 120.383 148.217 119.608 132.476C118.936 132.455 118.337 132.47 117.813 132.483C115.289 132.546 114.467 132.567 115.219 128.38L145.514 127.156C146.128 131.184 145.96 131.191 144.033 131.281C143.41 131.309 142.603 131.347 141.579 131.531C141.434 137.734 140.2 141.472 139.309 143.209L140.975 143.684C140.866 146.249 140.593 146.24 138.622 146.175C137.92 146.151 137.004 146.121 135.803 146.197C135.681 146.626 135.557 147.045 135.435 147.457C134.964 149.053 134.518 150.561 134.304 152.271L128.281 152.436L127.994 151.41L126.261 152.219C124.819 152.893 121.936 154.196 118.364 155.809C115.064 157.3 111.175 159.057 107.291 160.829C119.078 168.098 132.791 172.293 147.123 172.293C188.253 172.293 221.863 140.12 224.168 99.5689C224.253 101.135 224.299 102.712 224.299 104.299C224.299 151.994 185.636 190.654 137.944 190.654C90.2514 190.654 51.5888 151.992 51.5888 104.299ZM87.6115 93.1877C79.1805 101.759 78.1916 113.331 89.1627 112.481V112.483L148.792 107.302C150.798 96.3311 154.681 85.8558 168.716 75.2723C163.341 76.1285 157.945 76.9795 152.537 77.8322C133.761 80.7931 114.855 83.7745 96.2759 87.0664C94.543 87.876 92.9325 88.8338 91.4617 89.8924L141.275 83.9725L87.6115 93.1877ZM158.566 103.138C158.566 98.8891 162.033 95.4436 166.31 95.4436C167.4 95.4436 168.437 95.6678 169.378 96.0707C168.72 96.5952 168.299 97.3991 168.299 98.3018C168.299 99.8811 169.588 101.162 171.178 101.162C172.086 101.162 172.895 100.744 173.423 100.09C173.829 101.025 174.054 102.055 174.054 103.138C174.054 107.388 170.587 110.833 166.31 110.833C162.033 110.833 158.566 107.388 158.566 103.138ZM171.689 103.201C171.689 102.578 171.18 102.072 170.552 102.072C169.925 102.072 169.416 102.578 169.416 103.201C169.416 103.825 169.925 104.33 170.552 104.33C171.18 104.33 171.689 103.825 171.689 103.201ZM154.444 102.114C154.444 96.1695 159.294 91.3481 165.279 91.3481C171.262 91.3481 176.114 96.1676 176.114 102.114C176.114 102.289 176.109 102.462 176.101 102.635C175.837 97.4884 171.723 93.3949 166.308 93.3949C160.893 93.3949 156.504 97.9236 156.504 103.137C156.504 108.349 160.624 112.605 165.803 112.867C165.629 112.876 165.455 112.88 165.279 112.88C159.296 112.88 154.444 108.059 154.444 102.114ZM173.251 74.8675C190.897 69.8047 202.023 88.3435 195.495 105.238H195.497L194.466 108.121L188.162 108.646C189.463 99.8564 189.306 94.2197 184.76 87.6441C181.506 82.9367 176.2 78.809 168.483 77.6725C169.692 76.1789 171.048 75.6793 173.115 74.9175L173.251 74.8675ZM187.342 98.5071C188.212 106.147 186.309 112.764 181.087 118.224H181.085C173.553 126.102 161.836 126.66 152.977 120.066C149.968 117.827 146.73 114.06 145.743 109.896L151.204 109.503C153.84 114.999 157.776 118.745 165.459 118.973C182.432 119.477 187.673 97.4409 175.986 88.1097C171.503 84.993 165.824 84.0561 160.574 85.1318C162.383 83.0166 164.443 81.0078 166.781 79.0446C167.484 79.037 168.188 79.0693 168.888 79.1435C169.378 79.1701 169.889 79.2404 170.418 79.3601C170.499 79.3791 170.577 79.3981 170.656 79.4171C173.242 79.9454 175.732 81.0363 177.935 82.6859C183.128 86.31 186.615 92.1197 187.342 98.5071ZM144.112 110.014C146.548 118.344 153.201 122.941 158.573 125.009L111.476 126.976C110.866 127.01 110.263 127.05 109.667 127.088C103.186 127.51 97.5046 127.879 93.0645 121.915C91.9265 120.385 89.4668 116.158 89.6733 113.927L144.112 110.014Z" fill="url(#paint5_linear_930_26300)"/>
<path fill-rule="evenodd" clip-rule="evenodd" d="M51.5888 104.299C51.5888 56.6066 90.2514 17.944 137.944 17.944C139.531 17.944 141.108 17.9903 142.674 18.0753C102.121 20.3805 69.948 52.4961 69.948 95.1186C69.948 115.395 78.1054 133.845 91.0871 147.618C94.924 147.575 98.3118 147.66 101.287 147.735C115.636 148.097 120.383 148.217 119.608 132.476C118.936 132.455 118.337 132.47 117.813 132.483C115.289 132.546 114.467 132.567 115.219 128.38L145.514 127.156C146.128 131.184 145.96 131.191 144.033 131.281C143.41 131.309 142.603 131.347 141.579 131.531C141.434 137.734 140.2 141.472 139.309 143.209L140.975 143.684C140.866 146.249 140.593 146.24 138.622 146.175C137.92 146.151 137.004 146.121 135.803 146.197C135.681 146.626 135.557 147.045 135.435 147.457C134.964 149.053 134.518 150.561 134.304 152.271L128.281 152.436L127.994 151.41L126.261 152.219C124.819 152.893 121.936 154.196 118.364 155.809C115.064 157.3 111.175 159.057 107.291 160.829C119.078 168.098 132.791 172.293 147.123 172.293C188.253 172.293 221.863 140.12 224.168 99.5689C224.253 101.135 224.299 102.712 224.299 104.299C224.299 151.994 185.636 190.654 137.944 190.654C90.2514 190.654 51.5888 151.992 51.5888 104.299ZM87.6115 93.1877C79.1805 101.759 78.1916 113.331 89.1627 112.481V112.483L148.792 107.302C150.798 96.3311 154.681 85.8558 168.716 75.2723C163.341 76.1285 157.945 76.9795 152.537 77.8322C133.761 80.7931 114.855 83.7745 96.2759 87.0664C94.543 87.876 92.9325 88.8338 91.4617 89.8924L141.275 83.9725L87.6115 93.1877ZM158.566 103.138C158.566 98.8891 162.033 95.4436 166.31 95.4436C167.4 95.4436 168.437 95.6678 169.378 96.0707C168.72 96.5952 168.299 97.3991 168.299 98.3018C168.299 99.8811 169.588 101.162 171.178 101.162C172.086 101.162 172.895 100.744 173.423 100.09C173.829 101.025 174.054 102.055 174.054 103.138C174.054 107.388 170.587 110.833 166.31 110.833C162.033 110.833 158.566 107.388 158.566 103.138ZM171.689 103.201C171.689 102.578 171.18 102.072 170.552 102.072C169.925 102.072 169.416 102.578 169.416 103.201C169.416 103.825 169.925 104.33 170.552 104.33C171.18 104.33 171.689 103.825 171.689 103.201ZM154.444 102.114C154.444 96.1695 159.294 91.3481 165.279 91.3481C171.262 91.3481 176.114 96.1676 176.114 102.114C176.114 102.289 176.109 102.462 176.101 102.635C175.837 97.4884 171.723 93.3949 166.308 93.3949C160.893 93.3949 156.504 97.9236 156.504 103.137C156.504 108.349 160.624 112.605 165.803 112.867C165.629 112.876 165.455 112.88 165.279 112.88C159.296 112.88 154.444 108.059 154.444 102.114ZM173.251 74.8675C190.897 69.8047 202.023 88.3435 195.495 105.238H195.497L194.466 108.121L188.162 108.646C189.463 99.8564 189.306 94.2197 184.76 87.6441C181.506 82.9367 176.2 78.809 168.483 77.6725C169.692 76.1789 171.048 75.6793 173.115 74.9175L173.251 74.8675ZM187.342 98.5071C188.212 106.147 186.309 112.764 181.087 118.224H181.085C173.553 126.102 161.836 126.66 152.977 120.066C149.968 117.827 146.73 114.06 145.743 109.896L151.204 109.503C153.84 114.999 157.776 118.745 165.459 118.973C182.432 119.477 187.673 97.4409 175.986 88.1097C171.503 84.993 165.824 84.0561 160.574 85.1318C162.383 83.0166 164.443 81.0078 166.781 79.0446C167.484 79.037 168.188 79.0693 168.888 79.1435C169.378 79.1701 169.889 79.2404 170.418 79.3601C170.499 79.3791 170.577 79.3981 170.656 79.4171C173.242 79.9454 175.732 81.0363 177.935 82.6859C183.128 86.31 186.615 92.1197 187.342 98.5071ZM144.112 110.014C146.548 118.344 153.201 122.941 158.573 125.009L111.476 126.976C110.866 127.01 110.263 127.05 109.667 127.088C103.186 127.51 97.5046 127.879 93.0645 121.915C91.9265 120.385 89.4668 116.158 89.6733 113.927L144.112 110.014Z" fill="url(#paint6_linear_930_26300)"/>
<path fill-rule="evenodd" clip-rule="evenodd" d="M147.993 22.4299C114.62 22.4299 86.5658 45.2532 78.5047 76.1819C89.1665 53.4045 112.242 37.6295 138.998 37.6295C175.885 37.6295 205.79 67.612 205.79 104.599C205.79 128.617 193.178 149.676 174.234 161.495C200.919 150.987 219.813 124.925 219.813 94.4402C219.813 54.67 187.658 22.4299 147.993 22.4299Z" fill="url(#paint7_linear_930_26300)"/>
<defs>
<linearGradient id="paint0_linear_930_26300" x1="22.2676" y1="172.529" x2="29.9944" y2="180.701" gradientUnits="userSpaceOnUse">
<stop stop-color="#18ACF4"/>
<stop offset="1" stop-color="#0067B0"/>
</linearGradient>
<linearGradient id="paint1_linear_930_26300" x1="23.422" y1="142.011" x2="31.3072" y2="150.349" gradientUnits="userSpaceOnUse">
<stop stop-color="#18ACF4"/>
<stop offset="1" stop-color="#0067B0"/>
</linearGradient>
<linearGradient id="paint2_linear_930_26300" x1="28.1272" y1="197.07" x2="36.0849" y2="205.496" gradientUnits="userSpaceOnUse">
<stop stop-color="#18ACF4"/>
<stop offset="1" stop-color="#0067B0"/>
</linearGradient>
<linearGradient id="paint3_linear_930_26300" x1="52.8966" y1="202.124" x2="60.7615" y2="210.466" gradientUnits="userSpaceOnUse">
<stop stop-color="#18ACF4"/>
<stop offset="1" stop-color="#0067B0"/>
</linearGradient>
<linearGradient id="paint4_linear_930_26300" x1="91.7017" y1="118.879" x2="25.4426" y2="150.302" gradientUnits="userSpaceOnUse">
<stop stop-color="#F78E31"/>
<stop offset="1" stop-color="#F14D31"/>
</linearGradient>
<linearGradient id="paint5_linear_930_26300" x1="128.972" y1="-2.24295" x2="129.533" y2="191.474" gradientUnits="userSpaceOnUse">
<stop stop-color="#18ACF4"/>
<stop offset="1" stop-color="#0067B0"/>
</linearGradient>
<linearGradient id="paint6_linear_930_26300" x1="128.972" y1="-2.24295" x2="129.533" y2="191.474" gradientUnits="userSpaceOnUse">
<stop stop-color="#18ACF4"/>
<stop offset="1" stop-color="#0067B0"/>
</linearGradient>
<linearGradient id="paint7_linear_930_26300" x1="116.636" y1="22.4299" x2="219.813" y2="91.9626" gradientUnits="userSpaceOnUse">
<stop stop-color="#F78E31"/>
<stop offset="1" stop-color="#F14D31"/>
</linearGradient>
</defs>
</svg>
